<svg width="883" height="100" viewBox="0 0 883 100" fill="none" xmlns="http://www.w3.org/2000/svg">
<path d="M52.4247 0.09655L25.4781 99.9035H0L26.9465 0.09655H52.4247Z" fill="white"/>
<path d="M99.8062 0.09655L72.8594 99.9035H47.381L74.3278 0.09655H99.8062Z" fill="white"/>
<path d="M115.068 0.00698853L109.662 20.0269C111.169 20.8326 112.839 21.2355 114.672 21.2355C116.543 21.2355 118.275 20.7644 119.867 19.8223C121.46 18.8548 122.749 17.5689 123.735 15.9648C124.746 14.3352 125.265 12.5274 125.29 10.5413C125.265 7.63864 124.178 5.15607 122.029 3.09363C120.006 1.12945 117.686 0.100568 115.068 0.00698853Z" fill="white"/>
<path d="M107.126 96.7133C109.224 98.7757 111.74 99.8069 114.672 99.8069C116.543 99.8069 118.274 99.3359 119.867 98.3938C121.46 97.4262 122.749 96.1404 123.735 94.5362C124.746 92.9066 125.264 91.0988 125.29 89.1128C125.264 86.2101 124.177 83.7275 122.028 81.6651C119.905 79.6026 117.453 78.5714 114.672 78.5714C111.74 78.5714 109.224 79.6026 107.126 81.6651C105.053 83.7275 104.029 86.2101 104.055 89.1128C104.029 92.0919 105.053 94.6254 107.126 96.7133Z" fill="white"/>
<path d="M166.988 0V98.8417H140.154V0H166.988Z" fill="white"/>
<path d="M265.227 0V98.8417H242.833L207.119 46.9112H206.54V98.8417H179.706V0H202.485L237.621 51.7375H238.393V0H265.227Z" fill="white"/>
<path d="M277.92 98.8417V0H304.754V38.61H340.275V0H367.109V98.8417H340.275V60.2317H304.754V98.8417H277.92Z" fill="white"/>
<path d="M438.345 0H465.179V63.3205C465.179 70.8494 463.377 77.3649 459.773 82.8668C456.202 88.3366 451.215 92.5676 444.812 95.5598C438.409 98.5199 430.976 100 422.514 100C413.988 100 406.523 98.5199 400.121 95.5598C393.718 92.5676 388.731 88.3366 385.159 82.8668C381.62 77.3649 379.85 70.8494 379.85 63.3205V0H406.684V61.0039C406.684 64.0605 407.36 66.7954 408.711 69.2085C410.063 71.5894 411.929 73.4556 414.31 74.8069C416.723 76.1583 419.458 76.834 422.514 76.834C425.603 76.834 428.338 76.1583 430.719 74.8069C433.1 73.4556 434.966 71.5894 436.318 69.2085C437.669 66.7954 438.345 64.0605 438.345 61.0039V0Z" fill="white"/>
<path d="M477.932 0H511.33L534.303 55.9846H535.461L558.434 0H591.831V98.8417H565.577V41.6988H564.804L542.797 98.0695H526.967L504.959 41.3127H504.187V98.8417H477.932V0Z" fill="white"/>
<path d="M630.224 98.8417H601.267L633.892 0H670.572L703.197 98.8417H674.24L652.618 27.2201H651.846L630.224 98.8417ZM635.936 59.8456H713.123V79.9228H635.936V59.8456Z" fill="white"/>
<path d="M798.238 0V98.8417H775.844L740.13 46.9112H739.551V79.9228H712.717V0H735.497L770.632 51.7375H771.404V0H798.238Z" fill="white"/>
<path d="M810.931 98.8417V38.61H837.765V21.6216H775V0.5L771.404 0H798.238H882.167V21.6216H837.765V38.61H878.499V60.2317H810.931V77.2201H881.974V98.8417H810.931Z" fill="white"/>
</svg>
