<svg width="126" height="100" viewBox="0 0 126 100" fill="none" xmlns="http://www.w3.org/2000/svg">
<path d="M52.4247 0.0966415L25.4781 99.9036H0L26.9465 0.0966415H52.4247Z" fill="white"/>
<path d="M99.8062 0.0966415L72.8594 99.9036H47.381L74.3278 0.0966415H99.8062Z" fill="white"/>
<path d="M115.068 0.00708008L109.662 20.0269C111.169 20.8327 112.839 21.2356 114.672 21.2356C116.543 21.2356 118.275 20.7645 119.867 19.8224C121.46 18.8549 122.749 17.569 123.735 15.9649C124.746 14.3353 125.265 12.5275 125.29 10.5414C125.265 7.63873 124.178 5.15616 122.029 3.09372C120.006 1.12954 117.686 0.10066 115.068 0.00708008Z" fill="white"/>
<path d="M107.126 96.7133C109.224 98.7758 111.74 99.807 114.672 99.807C116.543 99.807 118.274 99.336 119.867 98.3939C121.46 97.4263 122.749 96.1404 123.735 94.5363C124.746 92.9067 125.264 91.0989 125.29 89.1129C125.264 86.2102 124.177 83.7276 122.028 81.6651C119.905 79.6027 117.453 78.5715 114.672 78.5715C111.74 78.5715 109.224 79.6027 107.126 81.6651C105.053 83.7276 104.029 86.2102 104.055 89.1129C104.029 92.0919 105.053 94.6254 107.126 96.7133Z" fill="white"/>
</svg>
