<svg width="743" height="100" viewBox="0 0 743 100" fill="none" xmlns="http://www.w3.org/2000/svg">
<path d="M26.9884 0V98.8417H0.154419V0H26.9884Z" fill="white"/>
<path d="M125.227 0V98.8417H102.833L67.1187 46.9112H66.5396V98.8417H39.7056V0H62.4855L97.6206 51.7375H98.3928V0H125.227Z" fill="white"/>
<path d="M137.92 98.8417V0H164.754V38.61H200.275V0H227.109V98.8417H200.275V60.2317H164.754V98.8417H137.92Z" fill="white"/>
<path d="M298.345 0H325.179V63.3205C325.179 70.8494 323.377 77.3649 319.773 82.8668C316.202 88.3366 311.215 92.5676 304.812 95.5598C298.409 98.5199 290.976 100 282.514 100C273.988 100 266.523 98.5199 260.121 95.5598C253.718 92.5676 248.731 88.3366 245.159 82.8668C241.62 77.3649 239.85 70.8494 239.85 63.3205V0H266.684V61.0039C266.684 64.0605 267.36 66.7954 268.711 69.2085C270.063 71.5894 271.929 73.4556 274.31 74.8069C276.723 76.1583 279.458 76.834 282.514 76.834C285.603 76.834 288.338 76.1583 290.719 74.8069C293.1 73.4556 294.966 71.5894 296.318 69.2085C297.669 66.7954 298.345 64.0605 298.345 61.0039V0Z" fill="white"/>
<path d="M337.932 0H371.33L394.303 55.9846H395.461L418.434 0H451.831V98.8417H425.577V41.6988H424.804L402.797 98.0695H386.967L364.959 41.3127H364.187V98.8417H337.932V0Z" fill="white"/>
<path d="M490.224 98.8417H461.267L493.892 0H530.572L563.197 98.8417H534.24L512.618 27.2201H511.846L490.224 98.8417ZM495.936 59.8456H573.123V79.9228H495.936V59.8456Z" fill="white"/>
<path d="M658.238 0V98.8417H635.844L600.13 46.9112H599.551V79.9228H572.717V0H595.497L630.632 51.7375H631.404V0H658.238Z" fill="white"/>
<path d="M670.931 98.8417V38.61H697.765V21.6216H635V0.5L631.404 0H658.238H742.167V21.6216H697.765V38.61H738.499V60.2317H670.931V77.2201H741.974V98.8417H670.931Z" fill="white"/>
</svg>
