<svg width="960" height="83" viewBox="0 0 960 83" fill="none" xmlns="http://www.w3.org/2000/svg">
<path d="M24.0716 81.3514H46.2831L70.3547 2.21712H55.0364L35.0132 67.2831L15.3183 2.21712H0L24.0716 81.3514Z" fill="white"/>
<path d="M258.477 81.3514H273.577V49.1481L300.493 2.21712H283.096L266.027 32.0024L248.958 2.21712H231.561L258.477 49.1481V81.3514Z" fill="white"/>
<path d="M488.98 83C511.738 83 526.291 66.8434 526.291 44.0923C526.291 43.7626 526.181 40.4653 526.072 39.4762H497.733V51.0166H510.207C507.799 63.5462 500.14 69.1515 489.965 68.9317C474.975 68.7119 467.534 58.2705 467.534 41.7842C467.534 25.2979 474.975 14.417 489.965 14.6368C500.031 14.7467 506.486 20.6818 509.331 29.9141L524.54 27.7159C520.601 10.4603 509.222 0.568493 488.98 0.568493C468.41 0.568493 451.778 15.5161 451.778 41.7842C451.778 68.602 469.066 83 488.98 83Z" fill="white"/>
<path d="M578.834 81.3514H630.259V67.393H593.714V47.0599H623.694V33.1015H593.714V16.1755H630.259V2.21712H578.834V81.3514Z" fill="white"/>
<path d="M684.95 81.3514H699.831V54.5336H716.408L729.374 81.3514H746.224L732 52.0058C740.972 47.8842 745.129 39.1464 745.129 28.3754C745.129 15.0764 738.893 4.85493 724.778 2.65676C722.699 2.32703 719.745 2.21712 718.213 2.21712H684.95V81.3514ZM699.831 40.5752V16.1755H717.557C719.088 16.1755 721.058 16.2854 722.59 16.7251C728.608 18.3737 730.139 24.0889 730.139 28.3754C730.139 32.6618 728.608 38.3771 722.59 40.0257C721.058 40.4653 719.088 40.5752 717.557 40.5752H699.831Z" fill="white"/>
<path d="M823.244 83C838.125 83 851.145 71.3497 851.145 56.4021C851.145 41.4545 840.86 30.6835 825.98 30.6835C822.588 30.6835 818.485 31.5627 814.983 33.4312L816.077 16.1755H845.893V2.21712H802.893L800.486 44.3121L813.068 48.1589C814.819 46.5103 818.211 44.0923 823.791 44.0923C830.575 44.0923 836.155 49.5878 836.155 56.4021C836.155 63.2164 830.575 68.7119 823.791 68.7119C818.649 68.7119 813.397 65.1948 811.974 59.5895L797.641 63.4363C800.923 75.0866 811.318 83 823.244 83Z" fill="white"/>
<path d="M937.898 81.3514H952.997V69.0416H960V55.0832H952.997V35.2996H937.898V55.0832H920.72L945.557 2.21712H928.488L903.651 55.0832V69.0416H937.898V81.3514Z" fill="white"/>
<path d="M336.621 81.3534H351.94L356.919 64.8876H386.574L391.663 81.3534H406.982L382.908 2.31741H360.695L336.621 81.3534ZM361.132 50.9465L371.637 16.3134L382.306 50.9465L386.574 64.8876H356.919L361.132 50.9465Z" fill="white"/>
<path d="M377.426 58.5548C375.443 58.5548 371.476 56.8493 371.476 50.0274C371.476 52.8699 370.286 58.5548 365.525 58.5548C367.509 58.5548 371.476 60.2603 371.476 67.0822C371.476 64.2397 372.666 58.5548 377.426 58.5548Z" fill="white"/>
<path d="M377.426 58.5548C375.443 58.5548 371.476 56.8493 371.476 50.0274C371.476 52.8699 370.286 58.5548 365.525 58.5548C367.509 58.5548 371.476 60.2603 371.476 67.0822C371.476 64.2397 372.666 58.5548 377.426 58.5548Z" fill="white"/>
<path fill-rule="evenodd" clip-rule="evenodd" d="M151.877 83C174.725 83 193.247 64.4198 193.247 41.5C193.247 18.5802 174.725 0 151.877 0C129.029 0 110.508 18.5802 110.508 41.5C110.508 64.4198 129.029 83 151.877 83ZM151.877 70.4931C167.526 70.4931 180.213 57.767 180.213 42.0685C180.213 26.37 167.526 13.6438 151.877 13.6438C136.228 13.6438 123.542 26.37 123.542 42.0685C123.542 57.767 136.228 70.4931 151.877 70.4931Z" fill="white"/>
</svg>
