<svg width="1920" height="1080" viewBox="0 0 1920 1080" fill="none" xmlns="http://www.w3.org/2000/svg">
<rect width="1920" height="1080" fill="black"/>
<rect width="1920" height="1080" fill="url(#paint0_radial_29_2)"/>
<g filter="url(#filter0_f_29_2)">
<path d="M932 181.5C939.2 181.5 941 173.833 941 170C941 179.2 947 181.5 950 181.5C942.8 181.5 941 189.167 941 193C941 183.8 935 181.5 932 181.5Z" fill="#A55913"/>
</g>
<g filter="url(#filter1_f_29_2)">
<path d="M329 103.5C341 103.5 344 89.8333 344 83C344 99.4 354 103.5 359 103.5C347 103.5 344 117.167 344 124C344 107.6 334 103.5 329 103.5Z" fill="#A55913"/>
</g>
<g filter="url(#filter2_f_29_2)">
<path d="M756 254.5C768 254.5 771 240.833 771 234C771 250.4 781 254.5 786 254.5C774 254.5 771 268.167 771 275C771 258.6 761 254.5 756 254.5Z" fill="#70310E"/>
</g>
<g filter="url(#filter3_f_29_2)">
<path d="M1102 168.5C1128 168.5 1134.5 138.833 1134.5 124C1134.5 159.6 1156.17 168.5 1167 168.5C1141 168.5 1134.5 198.167 1134.5 213C1134.5 177.4 1112.83 168.5 1102 168.5Z" fill="#70310E"/>
</g>
<g filter="url(#filter4_f_29_2)">
<path d="M184 266C190.4 266 192 258.667 192 255C192 263.8 197.333 266 200 266C193.6 266 192 273.333 192 277C192 268.2 186.667 266 184 266Z" fill="#70310E"/>
</g>
<g filter="url(#filter5_f_29_2)">
<path d="M1645 461C1654.2 461 1656.5 450.333 1656.5 445C1656.5 457.8 1664.17 461 1668 461C1658.8 461 1656.5 471.667 1656.5 477C1656.5 464.2 1648.83 461 1645 461Z" fill="#70310E"/>
</g>
<g filter="url(#filter6_f_29_2)">
<path d="M1547 181.5C1559 181.5 1562 167.833 1562 161C1562 177.4 1572 181.5 1577 181.5C1565 181.5 1562 195.167 1562 202C1562 185.6 1552 181.5 1547 181.5Z" fill="#A55913"/>
</g>
<g filter="url(#filter7_f_29_2)">
<path d="M550 317.5C553.2 317.5 554 313.833 554 312C554 316.4 556.667 317.5 558 317.5C554.8 317.5 554 321.167 554 323C554 318.6 551.333 317.5 550 317.5Z" fill="#A55913"/>
</g>
<g filter="url(#filter8_f_29_2)">
<path d="M1386 113.5C1392 113.5 1393.5 106.5 1393.5 103C1393.5 111.4 1398.5 113.5 1401 113.5C1395 113.5 1393.5 120.5 1393.5 124C1393.5 115.6 1388.5 113.5 1386 113.5Z" fill="#A55913"/>
</g>
<path fill-rule="evenodd" clip-rule="evenodd" d="M321.95 421.639C325.102 421.006 328.521 420.32 330.414 417H352.382C352.395 417.007 352.407 417.013 352.419 417.02C352.488 417.186 352.544 417.38 352.6 417.574C352.723 418 352.845 418.422 353.096 418.535C359.119 421.057 365.124 423.432 371.696 424.51C375.449 425.113 379.44 426.155 382.479 429.426C384.655 431.754 387.674 433.405 390.547 434.975L390.992 435.219C393.72 436.717 396.338 438.819 397.454 441.249C398.321 443.128 399.449 444.84 400.574 446.547C401.943 448.625 403.307 450.696 404.192 453.054C404.276 453.271 404.695 453.352 405.228 453.456C405.503 453.51 405.809 453.57 406.114 453.657L410.984 449.289C413.374 452.225 416.355 452.005 419.423 451.778C421.453 451.628 423.522 451.475 425.483 452.231C425.522 453.035 425.527 453.852 425.532 454.671V454.672C425.543 456.515 425.553 458.373 425.959 460.144C427.607 467.323 427.607 467.326 426.01 474.143L425.959 474.361C425.373 476.827 425.574 479.185 427.185 481.871C429.063 484.994 430.317 488.491 431.593 492.051C432.146 493.593 432.704 495.149 433.318 496.691C431.006 496.758 429.614 498.145 428.291 499.463C427.09 500.66 425.945 501.8 424.22 501.844C422.643 504.598 424.246 506.076 425.769 507.481C426.58 508.23 427.369 508.958 427.643 509.848C427.559 511.26 427.124 512.535 426.69 513.812C425.898 516.134 425.105 518.462 426.417 521.634L421.254 526.787L427.57 533.092C426.882 535.053 427.562 536.898 428.261 538.797C428.735 540.081 429.217 541.39 429.291 542.777C429.418 545.272 429.386 547.776 429.355 550.202V550.206C429.341 551.261 429.327 552.302 429.327 553.32C428.89 553.676 428.508 554.02 428.154 554.341C427.469 554.959 426.884 555.487 426.197 555.824C422.005 557.907 417.995 560.283 415.011 563.937C414.5 564.562 414.569 565.659 414.632 566.669C414.659 567.105 414.685 567.526 414.663 567.884C417.464 569.163 419.771 570.205 422.078 571.247C424.095 573.431 424.012 576.026 423.927 578.684C423.876 580.295 423.823 581.929 424.238 583.508C427.651 582.688 430.766 583.464 433.857 584.234C436.553 584.905 439.23 585.571 442.069 585.171C445.26 584.72 448.098 585.878 450.933 587.034C453.385 588.034 455.835 589.033 458.509 588.99C458.498 589.615 458.549 590.19 458.597 590.726C458.702 591.9 458.79 592.881 458.161 593.76C457.792 594.109 457.237 594.174 456.691 594.239C455.75 594.35 454.835 594.458 454.939 596.007C455.609 597.189 456.294 598.362 456.984 599.542C459.899 604.526 462.894 609.65 465.1 616.254C469.951 619.487 475.258 623.675 480.701 627.969L480.702 627.97C482.242 629.186 483.793 630.409 485.348 631.622L486.243 632.318C493.179 637.709 500.321 643.259 506.218 649.969V656.748L513.285 663.564C513.725 664.29 513.657 665.113 513.586 665.959C513.489 667.115 513.39 668.312 514.584 669.357C516.91 671.379 517.768 674.079 518.649 676.85C518.898 677.634 519.149 678.424 519.436 679.207C519.798 680.198 520.125 681.213 520.454 682.235C521.155 684.415 521.866 686.625 522.951 688.691C526.502 695.415 529.688 702.304 531.921 709.632C532.239 710.679 533.076 711.572 534.027 712.587L534.028 712.588C534.504 713.095 535.009 713.634 535.491 714.237C535.491 714.786 535.407 715.447 535.319 716.145C535.106 717.818 534.866 719.703 535.693 720.76C537.193 722.678 537.497 724.825 537.801 726.975C538.013 728.472 538.226 729.971 538.842 731.396C539.833 733.676 539.611 736.479 539.374 739.483C539.265 740.861 539.153 742.281 539.153 743.712L542.814 746.599C542.814 748.511 542.85 750.381 542.885 752.219C542.965 756.406 543.042 760.428 542.686 764.416C542.228 769.331 543.327 774.01 545.213 778.03C545.89 779.487 546.048 781.056 546.205 782.602C546.425 784.777 546.64 786.909 548.288 788.628C547.604 795.974 548.364 803.243 549.123 810.51V810.512C549.542 814.525 549.961 818.538 550.137 822.562C550.247 825.267 549.442 827.587 548.398 830.073C547.718 831.676 548.423 833.094 549.17 834.597C549.75 835.767 550.357 836.988 550.357 838.387C550.342 841.924 549.511 845.195 548.683 848.452C548.519 849.099 548.354 849.745 548.197 850.393C548.002 851.19 547.81 851.992 547.618 852.795C546.293 858.336 544.95 863.952 542.503 868.995C541.427 871.209 541.301 873.037 541.181 874.777C541.134 875.465 541.087 876.138 540.984 876.816C543.727 877.873 545.767 879.591 547.739 881.251C549.688 882.893 551.57 884.478 554 885.313C553.546 890.248 552.255 894.96 550.972 899.642C549.409 905.345 547.859 911.002 547.849 916.963C547.836 918.301 546.837 919.64 545.856 920.954C545.404 921.561 544.955 922.162 544.608 922.756C544.608 923.922 544.573 925.08 544.538 926.232C544.461 928.798 544.384 931.326 544.7 933.811C544.927 935.588 544.301 937.183 543.687 938.747C543.013 940.464 542.353 942.144 542.851 943.99C543.226 945.38 542.578 946.202 541.907 947.051C541.335 947.775 540.747 948.519 540.764 949.654C540.77 949.96 540.776 950.266 540.783 950.571L540.792 951.051C540.955 958.86 541.117 966.642 539.354 974.506C538.606 977.855 538.555 981.305 538.503 984.799C538.45 988.397 538.396 992.042 537.578 995.667C536.812 999.086 536.716 1002.63 536.619 1006.21C536.524 1009.73 536.428 1013.29 535.693 1016.81C534.613 1021.96 532.855 1026.9 530.31 1031.01C527.528 1035.5 525.825 1039.71 525.99 1044.71C525.175 1047.79 523.069 1049.79 520.968 1051.79C520.283 1052.44 519.599 1053.09 518.96 1053.78V1061.98H518.976C518.971 1061.99 518.965 1061.99 518.96 1062H224.25C224.242 1061.99 224.234 1061.99 224.227 1061.98H224.231C224.231 1059.56 224.31 1057.14 224.388 1054.71C224.566 1049.18 224.744 1043.66 223.993 1038.26C223.866 1037.36 223.733 1036.46 223.6 1035.56C222.582 1028.68 221.583 1021.94 223.591 1014.74L218.886 1010.05C218.3 999.98 218.153 989.984 224.231 978.929C224.719 978.475 225.257 977.869 225.862 977.188C227.91 974.881 230.716 971.72 234.886 970.76C238.094 970.016 241.035 971.266 244.029 972.538C245.665 973.234 247.317 973.936 249.038 974.324C249.957 972.499 251.634 971.616 253.322 970.728C254.761 969.97 256.209 969.209 257.203 967.855V961.039L258.8 959.875C260.04 958.973 261.491 957.917 262.841 956.927C262.38 955.483 261.836 954.105 261.303 952.754C259.955 949.337 258.677 946.098 258.979 942.418C259.198 939.659 257.441 937.32 255.757 935.62C253.235 933.085 251.594 930.137 249.693 926.723L249.642 926.63V904.3C247.562 900.567 244.401 899.557 241.299 898.565C240.225 898.221 239.158 897.88 238.145 897.429C236.608 898.724 235.533 900.421 234.467 902.103C232.917 904.55 231.386 906.967 228.479 908.082C225.257 906.438 225.385 903.221 226.209 900.901C226.864 899.062 227.284 897.134 227.699 895.222C228.259 892.65 228.812 890.107 229.925 887.853C232.634 882.371 233.733 876.944 233.422 872.412C238.694 860.461 241.221 849.022 240.378 837.528C239.738 828.519 236.717 819.547 232.25 811.415C229.006 812.653 226.111 814.144 223.291 815.596C220.7 816.93 218.173 818.232 215.499 819.273C213.283 820.134 211.057 820.249 208.875 820.362C206.748 820.473 204.662 820.581 202.665 821.374C198.345 823.092 194.098 824.39 189.319 824.627C183.681 824.901 177.346 824.444 173.227 822.763C171.708 822.142 170.481 821.356 169.749 820.223C163.47 810.684 158.435 800.305 156.769 789.14C154.682 775.088 156.879 760.962 162.92 747.951C165.886 741.592 166.637 735.964 163.744 730.445C164.193 726.772 166.278 724.555 168.294 722.411C169.316 721.323 170.321 720.255 171.085 719.025C174.212 713.979 178.44 710.006 182.667 706.034C185.223 703.632 187.778 701.232 190.088 698.595C193.047 698.618 194 696.647 194.956 694.671C195.52 693.505 196.085 692.337 197.063 691.578C197.759 691.048 200.34 682.276 200.432 681.125C200.761 676.995 204.789 667.731 206.638 663.601C207.966 660.653 209.869 658.119 211.765 655.596C213.477 653.317 215.182 651.047 216.451 648.489C218.812 643.756 221.632 639.407 225.55 635.825C227.495 634.036 229.032 631.906 230.57 629.772C232.331 627.33 234.094 624.884 236.479 622.942C237.687 621.956 238.877 619.927 238.731 618.52C238.388 615.259 240.248 613.651 242.186 611.976L242.188 611.974C242.735 611.501 243.29 611.022 243.802 610.498C248.69 611.448 252.919 609.749 256.946 606.77H264.709C268.584 605.076 269.583 601.996 270.549 599.02C271.239 596.892 271.912 594.817 273.606 593.339C279.194 591.673 279.297 591.431 281.423 586.429L281.423 586.427L281.425 586.422C281.583 586.05 281.753 585.653 281.936 585.226C282.502 583.909 282.589 582.502 282.676 581.099C282.803 579.055 282.929 577.019 284.536 575.285C285.183 574.587 284.66 572.586 284.292 571.182L284.243 570.991C282.851 565.746 280.197 561.452 272.892 559.552C269.908 559.753 265.35 559.46 261.633 555.732C257.77 551.877 256.599 547.29 257.203 542.74L262.622 532.415C264.115 526.714 261.983 521.716 259.847 516.709L259.847 516.708C259.573 516.067 259.3 515.425 259.034 514.782C258.432 513.334 257.726 511.917 257.02 510.502C254.804 506.058 252.6 501.638 253.724 496.398C255.191 494.942 256.316 493.264 257.423 491.612C258.971 489.304 260.483 487.049 262.841 485.526C262.026 483.693 262.739 482.379 263.509 480.959C263.983 480.085 264.479 479.17 264.654 478.07L260.718 475.384C260.894 473.485 260.86 471.623 260.826 469.795C260.745 465.358 260.667 461.124 263.61 457.074C267.432 458.305 270.687 456.79 273.989 455.254C276.129 454.258 278.289 453.254 280.636 452.981C281.789 445.744 285.488 439.385 291.163 435.584C299.767 429.791 309.141 425.059 319.429 422.208C320.223 421.986 321.076 421.815 321.95 421.639ZM417.007 496.252C420.27 492.053 420.182 488.175 420.098 484.454C420.093 484.207 420.087 483.962 420.083 483.716L422.701 481.103C425.884 483.071 426.55 486.224 427.233 489.464C427.623 491.31 428.018 493.184 428.889 494.882C428.431 496.338 427.11 496.773 425.808 497.201C424.611 497.595 423.431 497.984 422.957 499.158C421.291 499.437 420.471 498.714 419.525 497.881C418.86 497.295 418.133 496.655 417.007 496.27V496.252ZM260.534 495.887L263.5 499.286V499.267C269.706 494.626 273.862 488.888 271.043 486.567H263.811C266.085 489.702 264.487 491.212 262.798 492.809C261.849 493.706 260.87 494.631 260.534 495.887Z" fill="black"/>
<path fill-rule="evenodd" clip-rule="evenodd" d="M790.072 1079.98H888.31L888.389 1080C889.202 1076.6 890.026 1073.21 890.85 1069.81C891.674 1066.41 892.497 1063.01 893.311 1059.62C893.374 1059.36 893.405 1059.09 893.437 1058.81C893.484 1058.41 893.531 1058 893.684 1057.63C899.548 1043.61 895.41 1030.59 889.761 1017.71C888.897 1015.73 888.009 1013.76 887.122 1011.8C885.675 1008.58 884.227 1005.37 882.877 1002.12C882.348 1000.82 882.23 999.214 882.407 997.8C882.589 996.38 882.884 994.975 883.178 993.572C883.579 991.655 883.98 989.743 884.093 987.805C884.329 983.976 885.78 982.012 889.683 981.187C894.527 980.166 894.547 980.166 896.331 984.742C897.858 988.657 899.665 992.454 901.472 996.252C902.103 997.578 902.734 998.904 903.353 1000.24C903.874 1001.36 904.43 1002.47 904.986 1003.57C905.829 1005.25 906.672 1006.93 907.393 1008.66C907.558 1009.06 907.715 1009.48 907.875 1009.92C908.719 1012.21 909.64 1014.72 912.296 1014.14C916.042 1013.33 920.003 1011.45 922.69 1008.84C923.769 1007.8 922.122 1003.34 920.984 1000.75C918.925 996.052 916.493 991.497 913.924 987.039C912.639 984.803 911.233 982.637 909.827 980.471C908.355 978.204 906.883 975.937 905.549 973.588C902.862 968.836 903.353 967.127 907.844 964.162L908.486 963.739C914.939 959.482 921.38 955.232 927.986 951.241C930.849 949.533 932.751 947.706 932.124 944.191C931.457 940.48 929.006 938.713 925.495 937.986C922.305 937.33 919.122 936.637 915.937 935.943C913.973 935.515 912.008 935.087 910.04 934.667C903.176 933.195 898.96 928.246 895.547 922.787C893.004 918.71 890.729 914.459 888.454 910.206C886.992 907.473 885.53 904.739 883.995 902.051C883.719 901.562 883.122 901.268 882.51 900.968C881.992 900.714 881.463 900.455 881.112 900.067C880.423 899.311 879.967 898.322 879.515 897.34C879.427 897.149 879.339 896.957 879.249 896.768C879.155 896.57 879.169 896.313 879.184 896.058C879.199 895.782 879.215 895.509 879.092 895.315C878.123 893.689 877.116 892.085 876.108 890.481C875.485 889.489 874.862 888.497 874.248 887.5C874.202 887.424 874.15 887.344 874.098 887.261C873.837 886.854 873.539 886.389 873.62 886.047C874.864 880.365 872.991 875.362 871.116 870.354C870.36 868.335 869.603 866.315 869.051 864.25C868.462 862.09 868.6 861.304 871.934 861.01C873.962 860.833 876.041 860.771 878.13 860.709C886.705 860.455 895.434 860.196 901.411 851.937C903.059 849.65 904.325 847.069 905.59 844.492C906.116 843.418 906.643 842.345 907.197 841.294C909.923 836.149 913.12 831.927 918.513 828.628C926.181 823.935 931.594 816.807 933.32 807.283C934.419 801.215 936.282 795.226 938.361 789.394C940.616 783.051 941.087 776.689 939.733 770.228C938.38 763.827 939.459 758.014 943.519 753.026C948.48 746.959 948.5 739.909 947.441 732.977C947.283 731.94 947.129 730.901 946.975 729.861C945.471 719.696 943.955 709.458 938.066 700.498C937.027 698.927 936.419 696.57 936.713 694.764C937.537 689.619 936.733 684.945 934.987 680.075C934.315 678.185 934.099 676.136 933.884 674.082C933.678 672.124 933.472 670.163 932.869 668.333C932.771 668.033 932.673 667.731 932.574 667.428C931.173 663.116 929.663 658.47 926.75 655.333C920.239 648.283 917.297 640.055 914.63 631.14C913.243 626.534 910.846 622.244 908.445 617.949C907.213 615.745 905.98 613.539 904.882 611.287C903.784 609.049 902.705 606.653 902.294 604.218C901.313 598.445 900.254 593.28 893.488 591.003C891.777 590.432 890.41 588.948 889.021 587.439C887.973 586.302 886.913 585.15 885.682 584.365C881.426 581.655 876.955 579.063 872.248 577.355C868.247 575.921 866.364 573.113 865.089 569.716C862.716 563.432 859.186 558.621 852.557 556.186C850.4 555.401 848.085 553.064 847.281 550.904C846.678 549.265 845.814 547.721 844.949 546.174C842.974 542.643 840.993 539.1 842.084 534.389C842.759 531.431 842.992 528.375 843.224 525.318C843.424 522.694 843.624 520.069 844.104 517.502C844.463 515.564 845.766 513.763 847.034 512.01C847.36 511.56 847.683 511.113 847.987 510.668C849.051 509.116 850.165 507.595 851.281 506.075C853.086 503.612 854.891 501.15 856.479 498.552C857.244 497.335 856.97 495.135 856.519 493.564C855.286 489.323 855.59 485.204 855.908 480.909C855.949 480.352 855.99 479.793 856.028 479.229C856.558 471.257 856.636 462.734 854.342 455.233C851.619 446.301 847.359 437.811 843.126 429.374C842.389 427.906 841.654 426.44 840.927 424.973C839.515 422.106 836.612 419.808 833.984 417.746C833.646 417.482 833.307 417.216 832.969 416.951C828.461 413.418 823.923 409.861 818.961 407.103C809.92 402.096 800.192 398.522 789.66 399.052C780.423 399.504 771.166 400.387 762.046 401.821C753.606 403.172 747.1 408.564 740.725 413.848C740.523 414.015 740.321 414.182 740.12 414.349C739.948 414.492 739.775 414.635 739.603 414.778C736.007 417.758 732.393 420.753 729.137 424.069C727.313 425.915 725.862 428.409 724.96 430.864C722.645 437.187 720.665 443.647 718.684 450.107C718.409 451.011 718.703 452.209 719.037 453.171C720.88 458.611 720.076 462.204 715.781 465.778C704.877 474.85 706.759 490.265 713.467 498.827C716.018 502.095 718.903 505.098 721.789 508.1C723.273 509.645 724.756 511.189 726.195 512.769C726.266 512.848 726.338 512.927 726.412 513.008C727.074 513.736 727.817 514.552 727.941 515.401C728.385 518.505 728.715 521.619 729.09 525.167C729.228 526.468 729.371 527.826 729.529 529.264C727.588 529.264 725.677 529.214 723.791 529.165C719.54 529.053 715.416 528.945 711.368 529.421C709.917 529.592 708.452 529.71 706.984 529.829C702.379 530.2 697.75 530.573 693.482 532.583C692.05 533.25 690.618 534.939 690.128 536.471C687.363 544.993 680.891 548.292 672.752 549.903C663.22 551.768 654.453 555.479 646.922 561.803C646.789 561.917 646.643 562.023 646.498 562.129C646.194 562.351 645.892 562.571 645.706 562.863C644.504 564.752 643.32 566.651 642.136 568.551C640.095 571.825 638.055 575.098 635.92 578.317C635.297 579.252 634.348 579.963 633.403 580.669C633.039 580.942 632.675 581.214 632.331 581.498C632.228 581.581 632.082 581.604 631.935 581.627C631.802 581.648 631.668 581.669 631.566 581.734C629.487 583.008 627.396 584.266 625.304 585.525C619.462 589.042 613.615 592.562 608.012 596.422C606.6 597.394 605.577 598.919 604.551 600.448C603.567 601.914 602.58 603.385 601.245 604.375C596.283 608.085 594.631 613.287 592.945 618.595C592.659 619.496 592.372 620.401 592.067 621.302C591.49 623.025 590.475 624.584 589.456 626.149C588.709 627.296 587.96 628.447 587.379 629.668C586.715 631.049 586.291 632.535 585.866 634.023C585.627 634.861 585.387 635.7 585.104 636.521C584.812 637.366 584.521 638.211 584.229 639.057C582.778 643.263 581.324 647.475 579.79 651.661C579.337 652.88 578.796 654.068 578.255 655.256C577.742 656.385 577.228 657.514 576.789 658.671C576.38 659.759 575.95 660.844 575.519 661.929C574.256 665.112 572.99 668.302 572.258 671.612C571.564 674.82 571.24 678.103 570.916 681.392C570.719 683.398 570.521 685.406 570.238 687.4C569.502 692.472 568.617 697.545 567.735 702.602C567.654 703.066 567.573 703.53 567.493 703.993C567.336 704.916 567.14 705.957 566.61 706.664C562.111 712.624 562.808 719.257 563.526 726.086L563.551 726.32C563.874 729.42 563.817 732.556 563.759 735.692C563.722 737.683 563.686 739.674 563.747 741.657C563.786 743.247 564.335 744.857 564.884 746.369C565.125 747.048 565.471 747.693 565.817 748.34C566.233 749.116 566.649 749.893 566.885 750.729C569.297 759.369 573.886 765.987 582.947 768.716L583.032 768.742C586.615 769.834 590.349 770.971 591.361 775.55L593.185 774.018C593.577 774.307 593.929 774.788 594.288 775.277C595.294 776.649 596.35 778.088 598.46 775.57C598.637 775.354 599.774 775.609 600.147 775.962C600.559 776.335 600.951 777.435 600.735 777.651C600.243 778.185 599.819 778.819 599.396 779.451C598.201 781.237 597.011 783.014 594.303 782.521C592.979 786.674 595.216 788.881 597.675 791.307C599.297 792.907 601.016 794.602 601.873 797.013L608.894 787.901C608.894 788.515 608.929 789.103 608.962 789.668C609.032 790.856 609.095 791.937 608.816 792.909C608.727 793.211 608.641 793.518 608.555 793.826C607.785 796.58 606.994 799.413 603.854 799.625C603.54 800.434 603.253 801.217 602.973 801.977C602.344 803.69 601.757 805.289 601.01 806.812C598.911 811.073 597.499 815.236 599.696 819.988C600.147 820.97 599.657 822.875 598.931 823.837C597.915 825.193 596.78 826.46 595.644 827.726C594.346 829.173 593.049 830.621 591.93 832.202C591.367 832.98 591.335 834.132 591.303 835.291C591.287 835.831 591.272 836.371 591.204 836.876C591.602 836.727 592.013 836.598 592.424 836.469C593.367 836.173 594.308 835.878 595.087 835.344C596.904 834.105 598.682 832.803 600.459 831.501C602.652 829.894 604.845 828.288 607.109 826.802C610.836 824.367 612.503 820.931 613.013 816.689L613.024 816.593C613.158 815.441 613.303 814.189 613.876 813.253C615.386 810.778 617.19 810.857 618.073 813.645C619.171 817.062 620.171 820.636 620.328 824.171C620.462 827.311 620.29 830.458 620.117 833.607C619.987 835.972 619.857 838.339 619.857 840.705C619.857 849.869 619.927 859.033 619.997 868.197C620.032 872.779 620.067 877.361 620.093 881.942C620.112 885.477 621.877 887.735 625.015 889.13C625.96 889.558 626.865 890.077 627.77 890.595C628.274 890.884 628.779 891.173 629.291 891.447C633.723 893.823 633.664 894.706 631.958 899.439C631.628 900.36 631.248 901.278 630.868 902.2C629.259 906.094 627.623 910.054 629.526 914.579C629.879 915.404 629.605 916.818 629.114 917.662C625.78 923.416 625.349 929.68 625.172 936.101C625.141 937.075 624.713 938.033 624.282 938.998C623.905 939.841 623.526 940.69 623.407 941.56C623.382 941.728 623.356 941.897 623.33 942.069C622.989 944.304 622.606 946.811 623.407 948.708C625.8 954.422 628.624 960.019 631.762 965.38C633.311 968.031 632.978 970.583 631.331 971.997C629.781 973.313 626.879 973.686 624.682 973.45C622.474 973.211 620.323 972.438 618.177 971.667C617.502 971.425 616.827 971.182 616.151 970.956C611.856 969.523 609.561 971.938 607.619 975.178C606.443 977.122 605.227 979.027 604.011 980.932C601.853 984.29 601.52 987.648 603.599 991.222C604.677 993.068 605.795 995.012 606.286 997.054C607.266 1001.08 610.169 1001.94 613.64 1002.89C622.074 1005.14 630.409 1007.76 638.685 1010.49C639.646 1010.8 640.627 1012.88 640.548 1014.06C640.378 1016.6 639.889 1019.13 639.401 1021.64C639.271 1022.31 639.142 1022.98 639.019 1023.64C636.41 1037.72 638.509 1050.68 649.08 1061.03C654.218 1066.04 660.494 1069.61 667.672 1071.38C673.536 1072.83 674.595 1074.34 674.811 1080H735.707C734.991 1076.52 734.275 1073.04 733.559 1069.56C732.844 1066.08 732.128 1062.6 731.412 1059.13C731.372 1058.94 731.346 1058.72 731.321 1058.49C731.26 1057.96 731.198 1057.42 730.922 1057.24C727.875 1055.25 728.25 1052.56 728.628 1049.86C728.712 1049.25 728.796 1048.65 728.843 1048.05L728.855 1047.9C729.223 1043.24 729.591 1038.59 729.823 1033.93C729.939 1031.66 729.986 1029.39 730.034 1027.11C730.067 1025.53 730.1 1023.94 730.157 1022.35C730.169 1022.05 730.334 1021.74 730.543 1021.36C730.661 1021.14 730.794 1020.9 730.922 1020.62C731.708 1021.11 732.465 1021.61 733.212 1022.11C734.829 1023.19 736.396 1024.24 738.1 1025.02C743.65 1027.55 747.278 1025.21 747.141 1019.18C747.107 1017.64 746.849 1016.09 746.59 1014.54C746.244 1012.46 745.899 1010.39 746.102 1008.36C746.886 1000.69 748.632 993.205 754.299 987.275C754.828 986.73 754.794 985.596 754.764 984.578C754.757 984.349 754.751 984.126 754.751 983.917C754.777 981.717 754.768 979.518 754.759 977.319C754.755 976.219 754.751 975.119 754.751 974.02L756.516 973.47C757.055 974.464 757.656 975.439 758.256 976.414C759.577 978.557 760.895 980.698 761.556 983.033C764.365 993.065 767.074 1003.13 769.782 1013.19C773.049 1025.32 776.314 1037.45 779.756 1049.52C781.321 1054.98 783.381 1060.31 785.442 1065.63C786.532 1068.45 787.623 1071.27 788.641 1074.11C789.094 1075.39 789.375 1076.74 789.657 1078.08C789.789 1078.72 789.922 1079.35 790.072 1079.98ZM913.228 946.837C913.386 946.518 913.645 946.22 914.112 945.682C914.439 945.306 914.867 944.812 915.434 944.113L915.473 944.034C915.121 943.867 914.776 943.683 914.433 943.499C913.688 943.099 912.951 942.704 912.159 942.503C908.903 941.658 905.628 940.814 902.313 940.323C901.218 940.166 899.303 940.811 898.904 941.632C898.896 941.647 898.888 941.663 898.881 941.678C898.469 942.542 899.234 944.191 899.881 945.271C901.568 948.001 903.372 950.691 905.334 953.224C906.02 954.128 907.707 955.286 908.295 955.011C909.491 954.442 910.472 953.067 911.178 951.83C911.307 951.601 911.427 951.367 911.54 951.128C911.641 950.914 911.737 950.697 911.829 950.477C912.058 949.928 912.262 949.363 912.467 948.798C912.66 948.266 912.853 947.733 913.067 947.211C913.116 947.094 913.166 946.978 913.218 946.862C913.221 946.854 913.225 946.845 913.228 946.837ZM609.428 798.953C607.959 798.951 606.707 799.99 605.344 802.158C605.204 802.379 605.062 802.601 604.92 802.824L604.916 802.829L604.913 802.835L604.909 802.84C603.742 804.665 602.546 806.532 601.971 808.54C601.496 810.185 601.444 811.952 601.391 813.718C601.368 814.503 601.345 815.287 601.285 816.061L601.265 816.061L602.971 816.454C602.972 816.452 602.972 816.451 602.972 816.449L602.991 816.453C604.462 811.328 607.58 808.069 612.62 806.458C615.033 805.673 615.288 802.295 613.464 800.842C611.877 799.592 610.586 798.948 609.428 798.953ZM885.407 961.668C886.44 964.733 884.712 966.919 880.586 966.916C880.476 966.916 880.363 966.914 880.249 966.911C880.132 966.794 879.939 966.647 879.712 966.473C879.025 965.95 878.029 965.19 877.896 964.319C877.445 961.04 877.484 957.682 877.641 954.363C877.68 953.676 879.014 952.733 879.896 952.537C879.94 952.527 879.986 952.522 880.035 952.522C880.647 952.505 881.664 953.268 881.995 953.912C883.27 956.425 884.505 958.998 885.407 961.668ZM789.167 733.917C789.168 733.905 789.169 733.893 789.17 733.88C790.17 736.092 791.165 738.304 792.173 740.542C793.518 743.53 794.885 746.564 796.309 749.708C796.3 749.702 796.291 749.697 796.282 749.691C796.284 749.697 796.287 749.702 796.289 749.708C792.74 747.587 788.699 739.163 789.15 733.88C789.156 733.893 789.162 733.905 789.167 733.917ZM835.377 586.447L836.671 586.879H836.651L837.357 589.805L830.827 594.734L830.003 594.144C830.005 594.141 830.007 594.138 830.009 594.135C831.791 591.568 833.572 589.02 835.373 586.452C835.374 586.45 835.375 586.449 835.377 586.447Z" fill="black"/>
<defs>
<filter id="filter0_f_29_2" x="912" y="150" width="58" height="63" filterUnits="userSpaceOnUse" color-interpolation-filters="sRGB">
<feFlood flood-opacity="0" result="BackgroundImageFix"/>
<feBlend mode="normal" in="SourceGraphic" in2="BackgroundImageFix" result="shape"/>
<feGaussianBlur stdDeviation="10" result="effect1_foregroundBlur_29_2"/>
</filter>
<filter id="filter1_f_29_2" x="309" y="63" width="70" height="81" filterUnits="userSpaceOnUse" color-interpolation-filters="sRGB">
<feFlood flood-opacity="0" result="BackgroundImageFix"/>
<feBlend mode="normal" in="SourceGraphic" in2="BackgroundImageFix" result="shape"/>
<feGaussianBlur stdDeviation="10" result="effect1_foregroundBlur_29_2"/>
</filter>
<filter id="filter2_f_29_2" x="736" y="214" width="70" height="81" filterUnits="userSpaceOnUse" color-interpolation-filters="sRGB">
<feFlood flood-opacity="0" result="BackgroundImageFix"/>
<feBlend mode="normal" in="SourceGraphic" in2="BackgroundImageFix" result="shape"/>
<feGaussianBlur stdDeviation="10" result="effect1_foregroundBlur_29_2"/>
</filter>
<filter id="filter3_f_29_2" x="1082" y="104" width="105" height="129" filterUnits="userSpaceOnUse" color-interpolation-filters="sRGB">
<feFlood flood-opacity="0" result="BackgroundImageFix"/>
<feBlend mode="normal" in="SourceGraphic" in2="BackgroundImageFix" result="shape"/>
<feGaussianBlur stdDeviation="10" result="effect1_foregroundBlur_29_2"/>
</filter>
<filter id="filter4_f_29_2" x="164" y="235" width="56" height="62" filterUnits="userSpaceOnUse" color-interpolation-filters="sRGB">
<feFlood flood-opacity="0" result="BackgroundImageFix"/>
<feBlend mode="normal" in="SourceGraphic" in2="BackgroundImageFix" result="shape"/>
<feGaussianBlur stdDeviation="10" result="effect1_foregroundBlur_29_2"/>
</filter>
<filter id="filter5_f_29_2" x="1625" y="425" width="63" height="72" filterUnits="userSpaceOnUse" color-interpolation-filters="sRGB">
<feFlood flood-opacity="0" result="BackgroundImageFix"/>
<feBlend mode="normal" in="SourceGraphic" in2="BackgroundImageFix" result="shape"/>
<feGaussianBlur stdDeviation="10" result="effect1_foregroundBlur_29_2"/>
</filter>
<filter id="filter6_f_29_2" x="1527" y="141" width="70" height="81" filterUnits="userSpaceOnUse" color-interpolation-filters="sRGB">
<feFlood flood-opacity="0" result="BackgroundImageFix"/>
<feBlend mode="normal" in="SourceGraphic" in2="BackgroundImageFix" result="shape"/>
<feGaussianBlur stdDeviation="10" result="effect1_foregroundBlur_29_2"/>
</filter>
<filter id="filter7_f_29_2" x="530" y="292" width="48" height="51" filterUnits="userSpaceOnUse" color-interpolation-filters="sRGB">
<feFlood flood-opacity="0" result="BackgroundImageFix"/>
<feBlend mode="normal" in="SourceGraphic" in2="BackgroundImageFix" result="shape"/>
<feGaussianBlur stdDeviation="10" result="effect1_foregroundBlur_29_2"/>
</filter>
<filter id="filter8_f_29_2" x="1366" y="83" width="55" height="61" filterUnits="userSpaceOnUse" color-interpolation-filters="sRGB">
<feFlood flood-opacity="0" result="BackgroundImageFix"/>
<feBlend mode="normal" in="SourceGraphic" in2="BackgroundImageFix" result="shape"/>
<feGaussianBlur stdDeviation="10" result="effect1_foregroundBlur_29_2"/>
</filter>
<radialGradient id="paint0_radial_29_2" cx="0" cy="0" r="1" gradientUnits="userSpaceOnUse" gradientTransform="translate(1920 1080) rotate(-150.642) scale(2202.91 3916.28)">
<stop stop-color="#200601"/>
<stop offset="1"/>
</radialGradient>
</defs>
</svg>
