<svg width="1920" height="1080" viewBox="0 0 1920 1080" fill="none" xmlns="http://www.w3.org/2000/svg">
<g clip-path="url(#clip0_9_4)">
<rect width="1920" height="1080" fill="black"/>
<line x1="-64.8694" y1="340.199" x2="687.131" y2="-22.8011" stroke="#970045" stroke-width="4"/>
<line x1="496.942" y1="-60.4778" x2="805.942" y2="1195.52" stroke="#970045" stroke-width="4"/>
<line x1="-31.1929" y1="566.17" x2="1206.81" y2="1112.17" stroke="#970045" stroke-width="4"/>
<line x1="69.1603" y1="1157.22" x2="585.16" y2="-52.7845" stroke="#970045" stroke-width="4"/>
<line x1="-43.0687" y1="464.001" x2="1965.93" y2="395.001" stroke="#970045" stroke-width="4"/>
<line x1="-62.4577" y1="804.727" x2="240.542" y2="1171.73" stroke="#970045" stroke-width="4"/>
<path d="M1168.75 422.366C1157.59 422.75 1134.91 413.124 1133.48 371.548C1134.08 388.871 1128.57 423.748 1101.79 424.669C1112.95 424.285 1135.63 433.912 1137.06 475.487C1136.46 458.164 1141.96 423.287 1168.75 422.366Z" fill="black" stroke="#970045" stroke-width="3"/>
<path d="M183.335 1162.47L183.343 1162.47C201.183 1170.83 220.23 1175 240.461 1175C265.676 1175 289.067 1169.07 310.598 1157.21L310.609 1157.2C332.112 1145.17 349.464 1129.04 362.637 1108.84L362.642 1108.84C375.852 1088.4 382.451 1065.54 382.451 1040.31C382.451 1015.16 376.987 992.796 366.005 973.271C355.218 953.586 340.14 938.153 320.796 927.005C301.602 915.654 279.376 910.01 254.186 910.01C242.985 910.01 230.993 911.874 218.22 915.571C212.31 917.282 206.69 919.466 201.363 922.123L206.257 841.634H354.1H356.1V839.634V770V768H354.1H138.351H136.463L136.354 769.885L124.277 979.884L124.186 981.455L125.692 981.912L188.824 1001.1L189.944 1001.44L190.789 1000.63C194.985 996.617 201.385 992.333 210.092 987.804L210.107 987.797L210.121 987.789C218.52 983.245 229.507 980.902 243.206 980.902C254.213 980.902 264.2 983.557 273.21 988.851L273.217 988.855L273.225 988.859C282.446 994.173 289.697 1001.33 295.008 1010.35L295.015 1010.36L295.023 1010.37C300.498 1019.37 303.241 1029.33 303.241 1040.31C303.241 1051.29 300.498 1061.26 295.023 1070.25L295.015 1070.26L295.008 1070.28C289.697 1079.29 282.446 1086.45 273.225 1091.76L273.217 1091.77L273.21 1091.77C264.2 1097.07 254.213 1099.72 243.206 1099.72C234.907 1099.72 226.773 1097.96 218.789 1094.42C210.99 1090.7 204.07 1085.56 198.025 1078.99C192.218 1072.49 188.157 1064.74 185.854 1055.72L185.354 1053.76L183.401 1054.28L111.484 1073.47L109.522 1073.99L110.076 1075.95C115.642 1095.59 124.835 1112.85 137.661 1127.7C150.469 1142.53 165.698 1154.13 183.335 1162.47ZM605.106 1164.78V1166.78H607.106H682.865H684.865V1164.78V1105.37H718H720V1103.37V1033.73V1031.73H718H684.865V935.038V933.038H682.865H607.106H605.106V935.038V1031.73H524.074L647.343 770.854L648.692 768H645.535H559.894H558.627L558.086 769.146L433.467 1032.88L433.276 1033.28V1033.73V1103.37V1105.37H435.276H605.106V1164.78Z" stroke="#970045" stroke-width="4"/>
</g>
<defs>
<clipPath id="clip0_9_4">
<rect width="1920" height="1080" fill="white"/>
</clipPath>
</defs>
</svg>
