<svg width="1148" height="125" viewBox="0 0 1148 125" fill="none" xmlns="http://www.w3.org/2000/svg">
<path d="M212.072 102.351H234.283L258.355 23.2171H243.036L223.013 88.2831L203.318 23.2171H188L212.072 102.351Z" fill="white"/>
<path d="M446.477 102.351H461.577V70.1481L488.493 23.2171H471.096L454.027 53.0024L436.958 23.2171H419.561L446.477 70.1481V102.351Z" fill="white"/>
<path d="M676.98 104C699.738 104 714.291 87.8434 714.291 65.0923C714.291 64.7626 714.181 61.4654 714.072 60.4762H685.733V72.0166H698.207C695.799 84.5462 688.14 90.1515 677.965 89.9317C662.975 89.7119 655.534 79.2705 655.534 62.7842C655.534 46.2979 662.975 35.417 677.965 35.6368C688.031 35.7467 694.486 41.6818 697.331 50.9141L712.54 48.7159C708.601 31.4603 697.222 21.5685 676.98 21.5685C656.41 21.5685 639.778 36.5161 639.778 62.7842C639.778 89.602 657.066 104 676.98 104Z" fill="white"/>
<path d="M766.834 102.351H818.259V88.3929H781.714V68.0599H811.694V54.1014H781.714V37.1755H818.259V23.2171H766.834V102.351Z" fill="white"/>
<path d="M872.95 102.351H887.831V75.5336H904.408L917.374 102.351H934.224L920 73.0057C928.972 68.8842 933.129 60.1464 933.129 49.3754C933.129 36.0764 926.893 25.8549 912.778 23.6567C910.699 23.327 907.745 23.2171 906.213 23.2171H872.95V102.351ZM887.831 61.5753V37.1755H905.557C907.088 37.1755 909.058 37.2855 910.59 37.7251C916.608 39.3737 918.139 45.0889 918.139 49.3754C918.139 53.6618 916.608 59.3771 910.59 61.0257C909.058 61.4653 907.088 61.5753 905.557 61.5753H887.831Z" fill="white"/>
<path d="M1011.24 104C1026.12 104 1039.15 92.3497 1039.15 77.4021C1039.15 62.4545 1028.86 51.6835 1013.98 51.6835C1010.59 51.6835 1006.48 52.5627 1002.98 54.4312L1004.08 37.1755H1033.89V23.2171H990.893L988.486 65.3121L1001.07 69.1589C1002.82 67.5103 1006.21 65.0923 1011.79 65.0923C1018.58 65.0923 1024.16 70.5878 1024.16 77.4021C1024.16 84.2164 1018.58 89.7119 1011.79 89.7119C1006.65 89.7119 1001.4 86.1948 999.974 80.5895L985.641 84.4363C988.923 96.0866 999.318 104 1011.24 104Z" fill="white"/>
<path d="M1125.9 102.351H1141V90.0416H1148V76.0832H1141V56.2996H1125.9V76.0832H1108.72L1133.56 23.2171H1116.49L1091.65 76.0832V90.0416H1125.9V102.351Z" fill="white"/>
<path d="M524.621 102.353H539.94L544.919 85.8876H574.574L579.662 102.353H594.982L570.908 23.3174H548.695L524.621 102.353ZM549.132 71.9465L559.637 37.3134L570.307 71.9465L574.574 85.8876H544.919L549.132 71.9465Z" fill="white"/>
<path d="M565.426 79.5548C563.443 79.5548 559.476 77.8493 559.476 71.0274C559.476 73.8699 558.286 79.5548 553.525 79.5548C555.509 79.5548 559.476 81.2603 559.476 88.0822C559.476 85.2397 560.666 79.5548 565.426 79.5548Z" fill="white"/>
<path d="M565.426 79.5548C563.443 79.5548 559.476 77.8493 559.476 71.0274C559.476 73.8699 558.286 79.5548 553.525 79.5548C555.509 79.5548 559.476 81.2603 559.476 88.0822C559.476 85.2397 560.666 79.5548 565.426 79.5548Z" fill="white"/>
<path fill-rule="evenodd" clip-rule="evenodd" d="M339.877 104C362.725 104 381.247 85.4198 381.247 62.5C381.247 39.5802 362.725 21 339.877 21C317.029 21 298.508 39.5802 298.508 62.5C298.508 85.4198 317.029 104 339.877 104ZM339.877 91.4932C355.526 91.4932 368.213 78.767 368.213 63.0685C368.213 47.37 355.526 34.6439 339.877 34.6439C324.228 34.6439 311.542 47.37 311.542 63.0685C311.542 78.767 324.228 91.4932 339.877 91.4932Z" fill="white"/>
<path fill-rule="evenodd" clip-rule="evenodd" d="M74.1102 124.837C103.08 119.355 125 93.7364 125 62.9606C125 28.1884 97.0178 0 62.5 0C27.9822 0 0 28.1884 0 62.9606C0 69.1948 0.899442 75.2173 2.57473 80.9037C13.9378 68.2388 37.4991 49.0773 75.1272 35.4927C40.941 61.8535 21.5677 82.823 10.5905 98.0377C17.3384 108.151 26.9218 116.185 38.1935 120.983C39.134 118.017 38.7929 115.056 38.4515 112.092C38.3561 111.264 38.2607 110.436 38.1932 109.608C38.7076 109.772 39.125 110.148 39.0871 110.667C39.0075 111.751 39.1652 112.833 39.3229 113.914C39.5662 115.583 39.8092 117.25 39.1798 118.92C38.9308 119.583 38.8974 120.293 38.8641 121.003C38.8601 121.088 38.8561 121.173 38.8517 121.258C38.853 121.259 38.8543 121.259 38.8556 121.26C38.8601 121.173 38.8642 121.086 38.8683 120.999C38.9016 120.289 38.935 119.578 39.1841 118.915C39.8124 117.25 39.5696 115.586 39.3264 113.919C39.1682 112.834 39.0099 111.749 39.0913 110.662C39.1292 110.144 38.7118 109.763 38.1974 109.604C37.8819 108.327 37.9064 107.06 38.2751 105.796L38.2733 105.797C37.9047 104.098 38.3806 102.536 38.8568 100.972C38.9634 100.622 39.0701 100.272 39.1672 99.9201C39.4062 99.0477 40.1207 98.7737 40.8377 98.4987L40.8472 98.4951C40.6983 98.8389 40.5405 99.1801 40.3827 99.5211C39.6113 101.188 38.8404 102.854 39.1166 104.829C39.1446 105.032 39.1209 105.197 39.0567 105.332C39.1241 105.196 39.1495 105.027 39.1208 104.82C38.8446 102.846 39.6152 101.18 40.3866 99.5132C40.5432 99.1747 40.6993 98.8362 40.8472 98.4951L40.8495 98.4899V98.491L40.8537 98.4812C41.899 97.0947 43.0875 95.8592 44.5415 94.9174C44.7026 94.4692 45.022 94.2857 45.479 94.3244C45.4677 94.3887 45.4528 94.4472 45.4346 94.5002C45.4545 94.4449 45.4708 94.3836 45.4832 94.3158C45.6881 94.1217 45.8929 93.9312 46.101 93.7377L46.1504 93.6918C45.3745 92.2416 45.7156 90.6539 46.044 89.2688C46.3597 87.926 46.5461 86.5489 46.7324 85.1716C47.111 82.3738 47.4897 79.5753 48.9532 77.0619C49.0706 76.8602 49.1787 76.6465 49.2872 76.4319L49.2886 76.429C49.7838 75.4495 50.2876 74.4527 51.7149 74.4952C51.8835 74.4995 52.1702 74.1539 52.2251 73.9292C52.6973 72.0063 53.9832 72.0841 55.3282 72.6804C55.9944 72.9786 56.4793 72.9181 57.0949 72.6545C57.871 72.3277 58.6053 72.4245 59.0529 73.2895L59.0639 73.2897C59.2199 73.2681 59.3042 73.3372 59.3169 73.5014L59.318 73.5104C59.9937 73.7083 60.6359 73.9536 60.9491 74.6811L60.9528 74.681L61.425 75.1348L61.4271 75.1441C62.4927 75.5052 62.7476 76.4106 63.0134 77.3544L63.0137 77.3557C63.0237 77.3911 63.0339 77.4275 63.044 77.4629L63.0612 77.5234C63.0695 77.5525 63.0778 77.5816 63.0862 77.6107C63.3092 78.3838 63.6521 79.1125 63.9952 79.8416C64.5145 80.9451 65.0343 82.0495 65.1392 83.3102C65.2784 83.3663 65.3251 83.4657 65.2787 83.6126L65.2812 83.6192C65.9951 84.2943 66.7719 84.7415 67.774 84.2994L67.7832 84.291C67.8965 84.1878 68.0108 84.0835 68.1252 83.9792L68.2931 83.8261C68.3524 83.772 68.4116 83.7181 68.4704 83.6644C68.4747 83.6654 68.4789 83.6663 68.4832 83.6671C70.7535 82.0742 72.6671 80.082 74.5806 78.0899L74.5816 78.0889C75.4076 77.2288 76.2338 76.3688 77.0886 75.5409L77.0843 75.528C76.9389 75.2483 76.6897 74.9761 76.4419 74.7055C75.9357 74.1525 75.4357 73.6064 75.8405 73.0174C76.739 71.7043 76.6595 70.3302 76.5806 68.9673C76.5317 68.1238 76.4832 67.2845 76.6669 66.4668C76.6876 63.5343 76.2868 60.6969 74.8413 58.0753C75.3215 57.7796 75.6716 57.9667 76.0428 58.165C76.3333 58.3202 76.6366 58.4822 77.0253 58.4253C77.1181 56.2259 77.5313 54.0352 79.5466 52.6309H80.8073C80.9418 52.698 81.0756 52.7658 81.2093 52.8335L81.211 52.8342L81.2122 52.8348C81.5681 53.0151 81.9232 53.1949 82.2872 53.3611C84.649 54.4532 84.6299 54.5318 84.1513 56.5053L84.15 56.5105L84.1494 56.5133L84.1486 56.5166C84.0939 56.7422 84.0332 56.9925 83.9695 57.2716C83.4264 59.6535 83.0851 62.1948 83.2605 64.7148L83.2654 64.7254C83.2907 64.8355 83.3149 64.9467 83.3392 65.0579C83.3634 65.1692 83.3877 65.2806 83.413 65.3908L83.4164 65.3986C83.6859 65.5232 83.769 65.735 83.6894 66.0219L83.6913 66.026C83.6114 67.5425 83.7623 69.0555 83.9132 70.5695C84.1369 72.8129 84.3608 75.0586 83.8346 77.3212C83.5985 78.3366 83.2949 79.2095 82.4433 79.8144C82.1741 79.8481 81.9874 79.93 81.8694 80.0522C81.9876 79.9324 82.173 79.852 82.439 79.8187C82.3676 80.288 82.1623 80.6843 81.7939 80.9821C81.7176 81.9277 81.0516 82.3942 80.3646 82.8478C79.9792 82.837 79.7145 82.9724 79.509 83.184C79.7139 82.9749 79.9776 82.8414 80.3604 82.8521L80.2574 83.0731C78.5972 86.6357 76.957 90.1554 76.3043 94.1645C76.0392 95.8031 75.2577 97.6267 74.4249 99.2445L74.4281 99.2504L74.4154 100.594L74.4119 100.601C74.7099 101.734 74.7522 102.863 74.3885 103.987L74.3901 103.991L74.2679 104.859L74.2637 104.864C74.5077 106.028 74.5669 107.192 74.3075 108.36L74.31 108.363C74.2257 111.38 74.1414 114.396 74.057 117.407C73.2597 117.551 73.2196 118.09 73.2419 118.637C73.2218 118.094 73.2693 117.563 74.057 117.42C74.0607 119.126 74.0758 120.833 74.0909 122.538V122.541C74.0977 123.306 74.1045 124.072 74.1102 124.837ZM75.1272 35.4927C80.0763 35.4927 81.3136 30.2994 81.3136 27.7027C81.3136 33.9347 85.4379 35.4927 87.5 35.4927C82.5509 35.4927 81.3136 40.6861 81.3136 43.2828C81.3136 37.0507 77.1893 35.4927 75.1272 35.4927Z" fill="white"/>
<path d="M73.2127 125C73.2157 124.697 73.2189 124.394 73.2221 124.092L73.2226 124.035C73.2397 122.396 73.2568 120.757 73.2602 119.118L73.2601 119.112C73.2568 120.748 73.2397 122.385 73.2226 124.022C73.2192 124.348 73.216 124.674 73.2127 125Z" fill="white"/>
<path d="M63.7779 82.2979C63.7779 82.3083 63.7778 82.3188 63.7777 82.3293C63.7775 82.3435 63.7776 82.3575 63.778 82.3714C63.7777 82.3603 63.7776 82.3492 63.7777 82.3379L63.7778 82.3314C63.7778 82.3226 63.7779 82.3138 63.7779 82.3051L63.7779 82.2979Z" fill="white"/>
<path d="M48.481 79.6545C48.5323 79.28 48.6151 78.9245 48.7252 78.5869C48.6172 78.9206 48.5358 79.2718 48.4852 79.6416C48.2684 81.2238 47.9291 82.7888 47.5898 84.3541C46.9394 87.3542 46.2888 90.3555 46.4993 93.4818C46.4997 93.4875 46.4981 93.4932 46.4947 93.499C46.495 93.4976 46.4951 93.4962 46.4951 93.4948C46.2845 90.3685 46.9352 87.3672 47.5856 84.3671C47.9249 82.8018 48.2641 81.2368 48.481 79.6545Z" fill="white"/>
<path d="M80.8086 61.7655C80.2223 61.7645 79.542 62.2047 78.6022 63.0229C78.0541 63.5025 77.8939 64.0038 77.8391 64.6692C77.7717 65.4633 77.5991 66.2402 76.6703 66.4703L76.6711 66.4711C77.6029 66.2421 77.7758 65.4643 77.8433 64.6692C77.8981 64.0038 78.0583 63.5025 78.6064 63.0229C79.544 62.2066 80.2232 61.7666 80.8086 61.7655Z" fill="white"/>
</svg>
