<svg width="1000" height="1000" viewBox="0 0 1000 1000" fill="none" xmlns="http://www.w3.org/2000/svg">
<path fill-rule="evenodd" clip-rule="evenodd" d="M552.757 666.259C684.397 641.348 784 524.938 784 385.093C784 227.088 656.849 99 500 99C343.151 99 216 227.088 216 385.093C216 413.421 220.087 440.788 227.7 466.627C279.333 409.077 386.396 322.007 557.378 260.279C402.036 380.062 314.004 475.348 264.123 544.483C294.785 590.44 338.332 626.944 389.551 648.745C393.825 635.269 392.275 621.813 390.723 608.345C390.29 604.584 389.857 600.822 389.55 597.058C391.887 597.804 393.784 599.513 393.612 601.869C393.25 606.795 393.967 611.712 394.683 616.626C395.789 624.208 396.893 631.782 394.033 639.371C392.902 642.383 392.75 645.613 392.598 648.839C392.58 649.225 392.562 649.612 392.542 649.998C392.548 650 392.554 650.003 392.56 650.005C392.58 649.61 392.599 649.215 392.617 648.819C392.769 645.594 392.921 642.363 394.052 639.351C396.908 631.786 395.804 624.221 394.699 616.646C393.98 611.718 393.261 606.787 393.631 601.849C393.803 599.493 391.907 597.765 389.569 597.039C388.135 591.24 388.247 585.48 389.922 579.739L389.914 579.74C388.239 572.023 390.401 564.922 392.565 557.816L392.566 557.815C393.05 556.225 393.534 554.635 393.976 553.037C395.062 549.073 398.308 547.828 401.567 546.578L401.61 546.562C400.933 548.124 400.216 549.674 399.499 551.224L399.498 551.225L399.497 551.227C395.992 558.802 392.491 566.37 393.746 575.342C393.873 576.263 393.765 577.017 393.474 577.627C393.78 577.01 393.895 576.244 393.765 575.303C392.51 566.33 396.012 558.763 399.517 551.188L399.517 551.187C400.229 549.649 400.94 548.111 401.612 546.561L401.61 546.562L401.62 546.538V546.543L401.639 546.499C406.389 540.198 411.79 534.584 418.396 530.304C419.129 528.268 420.58 527.434 422.657 527.61C422.605 527.902 422.538 528.168 422.455 528.409C422.545 528.158 422.619 527.879 422.676 527.571C423.607 526.689 424.537 525.823 425.483 524.944L425.707 524.736C422.182 518.146 423.731 510.932 425.224 504.637C426.659 498.536 427.505 492.278 428.352 486.02C430.072 473.307 431.793 460.59 438.443 449.169C438.977 448.253 439.468 447.282 439.961 446.306L439.967 446.293C442.217 441.842 444.507 437.313 450.992 437.506C451.759 437.526 453.062 435.955 453.311 434.934C455.456 426.197 461.3 426.55 467.412 429.26C470.439 430.615 472.642 430.34 475.439 429.142C478.966 427.657 482.303 428.097 484.337 432.027L484.386 432.028C485.095 431.93 485.478 432.244 485.536 432.99L485.541 433.031C488.612 433.93 491.53 435.045 492.953 438.351L492.969 438.351L495.115 440.412L495.125 440.455C499.967 442.096 501.125 446.21 502.333 450.498L502.334 450.504L502.336 450.508C502.381 450.669 502.426 450.83 502.472 450.992L502.55 451.266C502.588 451.399 502.626 451.531 502.664 451.663C503.677 455.176 505.235 458.487 506.794 461.8C509.154 466.814 511.516 471.833 511.993 477.561L511.994 477.561C512.626 477.816 512.837 478.268 512.626 478.936L512.638 478.966C515.882 482.033 519.411 484.065 523.965 482.056L524.007 482.018C524.522 481.549 525.041 481.075 525.561 480.602L526.324 479.906C526.593 479.66 526.862 479.415 527.13 479.171C527.149 479.175 527.168 479.179 527.187 479.183C537.504 471.945 546.199 462.893 554.894 453.84L554.896 453.839L554.899 453.836C558.652 449.928 562.406 446.02 566.29 442.258V442.255L566.271 442.199C565.61 440.928 564.478 439.691 563.352 438.462C561.052 435.949 558.78 433.468 560.619 430.791C564.702 424.824 564.341 418.58 563.982 412.388C563.76 408.554 563.539 404.741 564.374 401.025C564.468 387.7 562.647 374.807 556.079 362.894C558.261 361.55 559.852 362.4 561.539 363.302C562.858 364.007 564.237 364.743 566.003 364.485C566.424 354.491 568.302 344.536 577.46 338.155H583.188C583.799 338.46 584.408 338.768 585.015 339.075L585.023 339.079L585.028 339.081C586.645 339.901 588.259 340.718 589.913 341.473C600.645 346.435 600.558 346.792 598.384 355.76L598.383 355.763L598.378 355.784L598.378 355.785L598.375 355.797L598.371 355.812C598.123 356.837 597.847 357.974 597.558 359.242C595.09 370.066 593.539 381.613 594.336 393.064L594.358 393.112C594.473 393.613 594.583 394.118 594.693 394.623C594.803 395.129 594.914 395.635 595.029 396.136L595.044 396.171C596.269 396.738 596.646 397.7 596.285 399.003L596.293 399.022C595.93 405.913 596.616 412.788 597.302 419.668C598.318 429.862 599.335 440.066 596.945 450.347C595.872 454.962 594.492 458.928 590.622 461.677C589.399 461.83 588.551 462.202 588.014 462.757C588.552 462.213 589.394 461.848 590.603 461.696C590.278 463.829 589.345 465.629 587.671 466.983C587.325 471.28 584.299 473.399 581.177 475.46C579.425 475.411 578.223 476.027 577.289 476.988C578.22 476.038 579.418 475.431 581.158 475.48L580.69 476.484C573.146 492.673 565.693 508.666 562.727 526.884C561.522 534.329 557.971 542.616 554.187 549.967L554.201 549.994L554.144 556.1L554.128 556.132C555.482 561.279 555.674 566.408 554.021 571.517L554.029 571.533L553.473 575.48L553.454 575.502C554.563 580.791 554.832 586.079 553.653 591.388L553.665 591.403C553.282 605.108 552.898 618.813 552.515 632.499C548.892 633.153 548.71 635.6 548.811 638.085C548.72 635.621 548.936 633.207 552.515 632.558C552.532 640.31 552.601 648.063 552.669 655.815V655.825C552.7 659.303 552.731 662.782 552.757 666.259ZM557.378 260.279C579.867 260.279 585.489 236.68 585.489 224.881C585.489 253.199 604.23 260.279 613.6 260.279C591.111 260.279 585.489 283.878 585.489 295.677C585.489 267.359 566.748 260.279 557.378 260.279Z" fill="white"/>
<path d="M548.678 667C548.692 665.624 548.707 664.248 548.721 662.872L548.724 662.615C548.801 655.167 548.879 647.719 548.894 640.274L548.894 640.243C548.879 647.679 548.801 655.118 548.724 662.558C548.708 664.039 548.693 665.519 548.678 667Z" fill="white"/>
<path d="M505.807 472.962C505.807 473.009 505.806 473.057 505.806 473.104C505.805 473.169 505.806 473.233 505.807 473.296C505.806 473.245 505.806 473.195 505.806 473.143L505.806 473.114C505.806 473.074 505.807 473.034 505.807 472.994L505.807 472.962Z" fill="white"/>
<path d="M436.298 460.95C436.531 459.248 436.907 457.633 437.407 456.099C436.916 457.615 436.547 459.211 436.317 460.891C435.331 468.081 433.79 475.192 432.248 482.305C429.293 495.938 426.336 509.575 427.293 523.781C427.295 523.807 427.287 523.833 427.272 523.86C427.273 523.853 427.274 523.847 427.274 523.84C426.317 509.634 429.273 495.996 432.229 482.364C433.771 475.251 435.312 468.14 436.298 460.95Z" fill="white"/>
<path d="M583.194 379.663C580.53 379.658 577.439 381.658 573.168 385.376C570.678 387.556 569.95 389.833 569.701 392.857C569.395 396.465 568.61 399.995 564.39 401.041L564.394 401.045C568.628 400.004 569.413 396.47 569.72 392.857C569.969 389.833 570.697 387.556 573.188 385.376C577.448 381.667 580.534 379.667 583.194 379.663Z" fill="white"/>
<path d="M44.0716 898.351H66.2831L90.3547 819.217H75.0364L55.0132 884.283L35.3183 819.217H20L44.0716 898.351Z" fill="white"/>
<path d="M278.477 898.351H293.577V866.148L320.493 819.217H303.096L286.027 849.002L268.958 819.217H251.561L278.477 866.148V898.351Z" fill="white"/>
<path d="M508.98 900C531.738 900 546.291 883.843 546.291 861.092C546.291 860.763 546.181 857.465 546.072 856.476H517.733V868.017H530.207C527.799 880.546 520.14 886.152 509.965 885.932C494.975 885.712 487.534 875.271 487.534 858.784C487.534 842.298 494.975 831.417 509.965 831.637C520.031 831.747 526.486 837.682 529.331 846.914L544.54 844.716C540.601 827.46 529.222 817.568 508.98 817.568C488.41 817.568 471.778 832.516 471.778 858.784C471.778 885.602 489.066 900 508.98 900Z" fill="white"/>
<path d="M598.834 898.351H650.259V884.393H613.714V864.06H643.694V850.101H613.714V833.176H650.259V819.217H598.834V898.351Z" fill="white"/>
<path d="M704.95 898.351H719.831V871.534H736.408L749.374 898.351H766.224L752 869.006C760.972 864.884 765.129 856.146 765.129 845.375C765.129 832.076 758.893 821.855 744.778 819.657C742.699 819.327 739.745 819.217 738.213 819.217H704.95V898.351ZM719.831 857.575V833.176H737.557C739.088 833.176 741.058 833.285 742.59 833.725C748.608 835.374 750.139 841.089 750.139 845.375C750.139 849.662 748.608 855.377 742.59 857.026C741.058 857.465 739.088 857.575 737.557 857.575H719.831Z" fill="white"/>
<path d="M843.244 900C858.125 900 871.145 888.35 871.145 873.402C871.145 858.455 860.86 847.683 845.98 847.683C842.588 847.683 838.485 848.563 834.983 850.431L836.077 833.176H865.893V819.217H822.893L820.486 861.312L833.068 865.159C834.819 863.51 838.211 861.092 843.791 861.092C850.575 861.092 856.155 866.588 856.155 873.402C856.155 880.216 850.575 885.712 843.791 885.712C838.649 885.712 833.397 882.195 831.974 876.589L817.641 880.436C820.923 892.087 831.318 900 843.244 900Z" fill="white"/>
<path d="M957.898 898.351H972.997V886.042H980V872.083H972.997V852.3H957.898V872.083H940.72L965.557 819.217H948.488L923.651 872.083V886.042H957.898V898.351Z" fill="white"/>
<path d="M356.621 898.353H371.94L376.919 881.888H406.574L411.663 898.353H426.982L402.908 819.317H380.695L356.621 898.353ZM381.132 867.947L391.637 833.313L402.306 867.947L406.574 881.888H376.919L381.132 867.947Z" fill="white"/>
<path d="M397.426 875.555C395.443 875.555 391.476 873.849 391.476 867.027C391.476 869.87 390.286 875.555 385.525 875.555C387.509 875.555 391.476 877.26 391.476 884.082C391.476 881.24 392.666 875.555 397.426 875.555Z" fill="white"/>
<path d="M397.426 875.555C395.443 875.555 391.476 873.849 391.476 867.027C391.476 869.87 390.286 875.555 385.525 875.555C387.509 875.555 391.476 877.26 391.476 884.082C391.476 881.24 392.666 875.555 397.426 875.555Z" fill="white"/>
<path fill-rule="evenodd" clip-rule="evenodd" d="M171.877 900C194.725 900 213.247 881.42 213.247 858.5C213.247 835.58 194.725 817 171.877 817C149.029 817 130.508 835.58 130.508 858.5C130.508 881.42 149.029 900 171.877 900ZM171.877 887.493C187.526 887.493 200.213 874.767 200.213 859.068C200.213 843.37 187.526 830.644 171.877 830.644C156.228 830.644 143.542 843.37 143.542 859.068C143.542 874.767 156.228 887.493 171.877 887.493Z" fill="white"/>
</svg>
