<svg width="568" height="568" viewBox="0 0 568 568" fill="none" xmlns="http://www.w3.org/2000/svg">
    <path fill-rule="evenodd" clip-rule="evenodd" d="M336.757 567.259C468.397 542.348 568 425.938 568 286.093C568 128.088 440.849 0 284 0C127.151 0 0 128.088 0 286.093C0 314.421 4.08707 341.788 11.6996 367.627C63.3333 310.077 170.396 223.007 341.378 161.279C186.036 281.062 98.0036 376.348 48.1233 445.483C78.7855 491.44 122.332 527.944 173.551 549.745C177.825 536.269 176.275 522.813 174.723 509.345C174.29 505.584 173.857 501.822 173.55 498.058C175.887 498.804 177.784 500.513 177.612 502.869C177.25 507.795 177.967 512.712 178.683 517.626C179.789 525.208 180.893 532.782 178.033 540.371C176.902 543.383 176.75 546.613 176.598 549.839C176.58 550.225 176.562 550.612 176.542 550.998C176.548 551 176.554 551.003 176.56 551.005C176.58 550.61 176.599 550.215 176.617 549.819C176.769 546.594 176.921 543.363 178.052 540.351C180.908 532.786 179.804 525.221 178.699 517.646C177.98 512.718 177.261 507.787 177.631 502.849C177.803 500.493 175.907 498.765 173.569 498.039C172.135 492.24 172.247 486.48 173.922 480.739L173.914 480.74C172.239 473.023 174.401 465.922 176.565 458.816L176.566 458.815C177.05 457.225 177.534 455.635 177.976 454.037C179.062 450.073 182.308 448.828 185.567 447.578L185.61 447.562C184.933 449.124 184.216 450.674 183.499 452.224L183.498 452.225L183.497 452.227C179.992 459.802 176.491 467.37 177.746 476.342C177.873 477.263 177.765 478.017 177.474 478.627C177.78 478.01 177.895 477.244 177.765 476.303C176.51 467.33 180.012 459.763 183.517 452.188L183.517 452.187C184.229 450.649 184.94 449.111 185.612 447.561L185.61 447.562L185.62 447.538V447.543L185.639 447.499C190.389 441.198 195.79 435.584 202.396 431.304C203.129 429.268 204.58 428.434 206.657 428.61C206.605 428.902 206.538 429.168 206.455 429.409C206.545 429.158 206.619 428.879 206.676 428.571C207.607 427.689 208.537 426.823 209.483 425.944L209.707 425.736C206.182 419.146 207.731 411.932 209.224 405.637C210.659 399.536 211.505 393.278 212.352 387.02C214.072 374.307 215.793 361.59 222.443 350.169C222.977 349.253 223.468 348.282 223.961 347.306L223.967 347.293C226.217 342.842 228.507 338.313 234.992 338.506C235.759 338.526 237.062 336.955 237.311 335.934C239.456 327.197 245.3 327.55 251.412 330.26C254.439 331.615 256.642 331.34 259.439 330.142C262.966 328.657 266.303 329.097 268.337 333.027L268.386 333.028C269.095 332.93 269.478 333.244 269.536 333.99L269.541 334.031C272.612 334.93 275.53 336.045 276.953 339.351L276.969 339.351L279.115 341.412L279.125 341.455C283.967 343.096 285.125 347.21 286.333 351.498L286.334 351.504L286.336 351.508C286.381 351.669 286.426 351.83 286.472 351.992L286.55 352.266C286.588 352.399 286.626 352.531 286.664 352.663C287.677 356.176 289.235 359.487 290.794 362.8C293.154 367.814 295.516 372.833 295.993 378.561L295.994 378.561C296.626 378.816 296.837 379.268 296.626 379.936L296.638 379.966C299.882 383.033 303.412 385.065 307.965 383.056L308.007 383.018C308.522 382.549 309.041 382.075 309.561 381.602L310.324 380.906C310.593 380.66 310.862 380.415 311.13 380.171C311.149 380.175 311.168 380.179 311.187 380.183C321.504 372.945 330.199 363.893 338.894 354.84L338.896 354.839L338.899 354.836C342.652 350.928 346.406 347.02 350.29 343.258V343.255L350.271 343.199C349.61 341.928 348.478 340.691 347.352 339.462C345.052 336.949 342.78 334.468 344.619 331.791C348.702 325.824 348.341 319.58 347.982 313.388C347.76 309.554 347.539 305.741 348.374 302.025C348.468 288.7 346.647 275.807 340.079 263.894C342.261 262.55 343.852 263.4 345.539 264.302C346.858 265.007 348.237 265.743 350.003 265.485C350.425 255.491 352.302 245.536 361.46 239.155H367.188C367.799 239.46 368.408 239.768 369.015 240.075L369.023 240.079L369.028 240.081C370.645 240.901 372.259 241.718 373.913 242.473C384.645 247.435 384.558 247.792 382.384 256.76L382.383 256.763L382.378 256.784L382.378 256.785L382.375 256.797L382.371 256.812C382.123 257.837 381.847 258.974 381.558 260.242C379.09 271.066 377.539 282.613 378.336 294.064L378.358 294.112C378.473 294.613 378.583 295.118 378.693 295.623C378.803 296.129 378.914 296.635 379.029 297.136L379.044 297.171C380.269 297.738 380.646 298.7 380.285 300.003L380.293 300.022C379.93 306.913 380.616 313.788 381.302 320.668C382.318 330.862 383.335 341.066 380.945 351.347C379.872 355.962 378.492 359.928 374.622 362.677C373.399 362.83 372.551 363.202 372.014 363.757C372.552 363.213 373.394 362.848 374.603 362.696C374.278 364.829 373.345 366.629 371.671 367.983C371.325 372.28 368.299 374.399 365.177 376.46C363.425 376.412 362.223 377.027 361.289 377.988C362.22 377.038 363.418 376.431 365.158 376.48L364.69 377.484C357.146 393.673 349.693 409.666 346.727 427.884C345.522 435.329 341.971 443.616 338.187 450.967L338.201 450.994L338.144 457.1L338.128 457.132C339.482 462.279 339.674 467.408 338.021 472.517L338.029 472.533L337.473 476.48L337.454 476.502C338.563 481.791 338.832 487.079 337.653 492.388L337.665 492.403C337.282 506.108 336.898 519.813 336.515 533.499C332.892 534.153 332.71 536.6 332.811 539.085C332.72 536.621 332.936 534.207 336.515 533.558C336.532 541.31 336.601 549.063 336.669 556.815V556.825C336.7 560.303 336.731 563.782 336.757 567.259ZM341.378 161.279C363.867 161.279 369.489 137.68 369.489 125.881C369.489 154.199 388.23 161.279 397.6 161.279C375.111 161.279 369.489 184.878 369.489 196.677C369.489 168.359 350.748 161.279 341.378 161.279Z" fill="black"/>
    <path d="M332.678 568C332.692 566.624 332.707 565.248 332.721 563.872L332.724 563.615C332.801 556.167 332.879 548.719 332.894 541.274L332.894 541.243C332.879 548.679 332.801 556.118 332.724 563.558C332.708 565.039 332.693 566.519 332.678 568Z" fill="black"/>
    <path d="M289.807 373.962C289.807 374.009 289.806 374.057 289.806 374.104C289.805 374.169 289.806 374.233 289.807 374.296C289.806 374.245 289.806 374.195 289.806 374.143L289.806 374.114C289.806 374.074 289.807 374.034 289.807 373.994L289.807 373.962Z" fill="black"/>
    <path d="M220.298 361.95C220.531 360.248 220.907 358.633 221.407 357.099C220.916 358.615 220.547 360.211 220.317 361.891C219.331 369.081 217.79 376.192 216.248 383.305C213.293 396.938 210.336 410.575 211.293 424.781C211.295 424.807 211.287 424.833 211.272 424.86C211.273 424.853 211.274 424.847 211.274 424.84C210.317 410.634 213.273 396.996 216.229 383.364C217.771 376.251 219.312 369.14 220.298 361.95Z" fill="black"/>
    <path d="M367.194 280.663C364.53 280.658 361.439 282.658 357.168 286.376C354.678 288.556 353.95 290.833 353.701 293.857C353.395 297.465 352.61 300.995 348.39 302.041L348.394 302.045C352.628 301.004 353.413 297.47 353.72 293.857C353.969 290.833 354.697 288.556 357.188 286.376C361.448 282.667 364.534 280.667 367.194 280.663Z" fill="black"/>
    </svg>
    